<?xml version="1.0" encoding="utf-8"?>
<!-- Generator: Adobe Illustrator 22.1.0, SVG Export Plug-In . SVG Version: 6.00 Build 0)  -->
<svg version="1.1" id="Layer_1" xmlns="http://www.w3.org/2000/svg" xmlns:xlink="http://www.w3.org/1999/xlink" x="0px" y="0px"
	 viewBox="0 0 256 256" style="enable-background:new 0 0 256 256;" xml:space="preserve">
<style type="text/css">
	.st0{fill:#D73735;}
	.st1{fill:#F85252;}
	.st2{fill:#EDAF85;}
	.st3{fill:#F7C09A;}
	.st4{fill:#D8D6D7;}
	.st5{fill:#FFFFFF;}
	.st6{fill:#1C868E;}
	.st7{fill:#40C4DF;}
	.st8{fill:#3d3b3b;}
	.st9{fill:#56C1B3;}
	.st10{fill:#7BEFE4;}
</style>
<g>
	<path class="st0" d="M188.17,182.882v3.71c0,2.76-2.24,5-5,5H72.83c-2.76,0-5-2.24-5-5v-3.71c0-33.23,26.94-60.17,60.17-60.17
		c2.77,0,5.5,0.19,8.17,0.55c13.35,1.81,25.31,8,34.38,17.07C181.44,151.222,188.17,166.262,188.17,182.882z"/>
	<path class="st1" d="M188.17,182.882v3.71c0,2.76-2.24,5-5,5h-94c-2.76,0-5-2.24-5-5v-3.71c0-30.46,22.64-55.64,52-59.62
		c13.35,1.81,25.31,8,34.38,17.07C181.44,151.222,188.17,166.262,188.17,182.882z"/>
	<path class="st2" d="M128,143.457L128,143.457c-7.112,0-12.878-5.766-12.878-12.878v-28.621h25.756v28.621
		C140.878,137.691,135.112,143.457,128,143.457z"/>
	<path class="st2" d="M76.274,78.595L76.274,78.595c0,6.163,5.042,11.205,11.205,11.205h4.589V67.39h-4.589
		C81.317,67.39,76.274,72.432,76.274,78.595z"/>
	<path class="st2" d="M168.521,67.39h-4.589V89.8h4.589c6.163,0,11.205-5.042,11.205-11.205v0
		C179.726,72.432,174.683,67.39,168.521,67.39z"/>
	<path class="st2" d="M164.97,42.642v43.06c0,18.14-13.23,33.33-30.53,36.4c-2.09,0.38-4.24,0.57-6.44,0.57
		c-20.34,0-36.97-16.63-36.97-36.97v-43.06c0-2.75,2.25-5,5-5h63.94C162.72,37.642,164.97,39.892,164.97,42.642z"/>
	<path class="st3" d="M164.97,42.642v43.06c0,18.14-13.23,33.33-30.53,36.4c-17.3-3.06-30.54-18.25-30.54-36.4v-43.06
		c0-2.75,2.25-5,5-5h51.07C162.72,37.642,164.97,39.892,164.97,42.642z"/>
	<path class="st4" d="M208,154.612v93.33c0,2.76-2.24,5-5,5H53c-2.76,0-5-2.24-5-5v-93.33c0-2.76,2.24-5,5-5h150
		C205.76,149.612,208,151.852,208,154.612z"/>
	<path class="st5" d="M208,154.612v93.33c0,2.76-2.24,5-5,5H74.21c-2.76,0-5-2.24-5-5v-93.33c0-2.76,2.24-5,5-5H203
		C205.76,149.612,208,151.852,208,154.612z"/>
	<path class="st4" d="M136.109,182.232h-16.217c-1.786,0-3.437,0.953-4.33,2.5l-8.108,14.044c-0.893,1.547-0.893,3.453,0,5
		l8.108,14.044c0.893,1.547,2.544,2.5,4.33,2.5h16.217c1.786,0,3.437-0.953,4.33-2.5l8.108-14.044c0.893-1.547,0.893-3.453,0-5
		l-8.108-14.044C139.545,183.185,137.895,182.232,136.109,182.232z"/>
	<path class="st6" d="M100.61,35.742v22.39c0,5.11-4.15,9.26-9.26,9.26c-5.11,0-9.26-4.15-9.26-9.26v-22.39
		c0-5.11,4.15-9.26,9.26-9.26c2.55,0,4.87,1.04,6.55,2.71C99.57,30.872,100.61,33.182,100.61,35.742z"/>
	<path class="st7" d="M100.61,35.742v10.22c0,5.11-4.15,9.26-9.26,9.26c-5.11,0-9.26-4.15-9.26-9.26v-10.22
		c0-5.11,4.15-9.26,9.26-9.26c2.55,0,4.87,1.04,6.55,2.71C99.57,30.872,100.61,33.182,100.61,35.742z"/>
	<path class="st7" d="M185.88,7.072l-2.1,7.32l-4.8,16.74c-4.08,14.25-18.11,24.51-32.77,22.29l-42.32-4.86
		c-1.65-0.19-2.94-1.45-3.23-3.03c-0.03-0.21-0.05-0.43-0.05-0.65v-9.14c0-11.99,9.72-21.71,21.71-21.71h32.47
		c9.77,0,19.2-3.63,26.44-10.2c0.59-0.54,1.27-0.77,1.92-0.77C185.02,3.062,186.73,4.952,185.88,7.072z"/>
	<path class="st6" d="M183.78,14.392l-4.8,16.74c-4.08,14.25-18.11,24.51-32.77,22.29l-42.32-4.86c-1.65-0.19-2.94-1.45-3.23-3.03
		c0.75-11.31,10.16-20.25,21.66-20.25h32.47c9.77,0,19.2-3.63,26.44-10.2c0.59-0.54,1.27-0.77,1.92-0.77
		C183.36,14.312,183.57,14.332,183.78,14.392z"/>
	<g>
		<circle class="st8" cx="109.792" cy="75.631" r="4.954"/>
		<circle class="st8" cx="146.208" cy="75.631" r="4.954"/>
		<path class="st8" d="M137.885,90.182c0-2.642-4-2.646-4,0c0,3.245-2.64,5.885-5.885,5.885s-5.885-2.64-5.885-5.885
			c0-2.642-4-2.646-4,0c0,5.451,4.434,9.885,9.885,9.885S137.885,95.633,137.885,90.182z"/>
		<path class="st8" d="M203.003,147.61H179.18c-8.742-12.704-21.698-21.511-36.301-25.099v-0.798
			c12.32-5.109,21.47-16.359,23.61-29.913h2.031c7.281,0,13.205-5.923,13.205-13.205s-5.923-13.205-13.205-13.205h-1.551V52.642
			c0-0.656-0.094-1.305-0.275-1.928c6.636-4.253,11.893-10.946,14.211-19.035l6.868-23.969c0.805-2.138,0.093-4.437-1.793-5.749
			c-1.917-1.334-4.369-1.176-6.1,0.392c-6.886,6.242-15.797,9.68-25.091,9.68h-32.474c-10.484,0-19.394,6.843-22.514,16.295
			c-2.065-2.351-5.084-3.845-8.452-3.845c-6.208,0-11.258,5.05-11.258,11.258v22.392c0,3.088,1.251,5.888,3.271,7.924
			c-5.27,1.735-9.089,6.696-9.089,12.539c0,7.281,5.923,13.205,13.205,13.205h2.031c2.139,13.554,11.29,24.804,23.61,29.913v0.817
			c-14.798,3.62-27.601,12.46-36.301,25.081H52.997c-3.86,0-7,3.14-7,7v93.332c0,3.86,3.14,7,7,7h150.007c3.86,0,7-3.14,7-7V154.61
			C210.003,150.75,206.863,147.61,203.003,147.61z M166.97,69.39h1.551c5.075,0,9.205,4.129,9.205,9.205s-4.129,9.205-9.205,9.205
			h-1.609C166.991,86.314,166.97,87.259,166.97,69.39z M102.609,35.74c0-10.867,8.841-19.708,19.708-19.708h32.474
			c10.29,0,20.154-3.806,27.778-10.716c0.467-0.422,0.908-0.226,1.129-0.073c0.221,0.154,0.558,0.5,0.324,1.083
			c-0.026,0.063-0.048,0.128-0.067,0.194l-6.894,24.056c-3.925,13.697-17.349,22.868-30.625,20.862l-42.318-4.867
			c-0.861-0.099-1.51-0.827-1.51-1.693V35.74z M87.479,87.8c-5.075,0-9.205-4.129-9.205-9.205s4.129-9.205,9.205-9.205h1.551
			c0,17.945-0.02,16.95,0.058,18.409H87.479z M84.092,58.132V35.74c0-4.002,3.256-7.258,7.258-7.258s7.258,3.256,7.258,7.258
			c0,11.611,0,10.753,0,22.392c0,4.002-3.256,7.258-7.258,7.258S84.092,62.135,84.092,58.132z M93.03,85.702v-16.45
			c5.412-0.815,9.579-5.483,9.579-11.119v-7.81c0.338,0.105,0.689,0.181,1.052,0.223c47.851,5.502,44.389,5.172,46.453,5.172
			c4.452,0,8.831-1.05,12.856-2.944v32.928c0,19.283-15.688,34.97-34.97,34.97S93.03,104.984,93.03,85.702z M138.88,123.115v7.467
			c0,5.999-4.881,10.88-10.88,10.88s-10.88-4.881-10.88-10.88v-7.467C124.033,125.128,131.542,125.252,138.88,123.115z
			 M113.12,126.645v3.937c0,8.205,6.675,14.88,14.88,14.88s14.88-6.675,14.88-14.88v-3.945c12.159,3.208,23.27,10.362,31.364,20.974
			H81.757C89.629,137.27,100.578,129.936,113.12,126.645z M206.003,247.942c0,1.654-1.346,3-3,3H52.997c-1.654,0-3-1.346-3-3V154.61
			c0-1.654,1.346-3,3-3h150.007c1.654,0,3,1.346,3,3V247.942z"/>
		<path class="st8" d="M142.171,183.732c-1.246-2.159-3.569-3.5-6.063-3.5h-16.217c-2.493,0-4.816,1.341-6.062,3.5l-8.109,14.044
			c-1.246,2.159-1.246,4.841,0,7l8.109,14.044c1.246,2.159,3.569,3.5,6.062,3.5h16.217c2.493,0,4.816-1.341,6.062-3.5l8.109-14.044
			c1.246-2.159,1.247-4.841,0-7L142.171,183.732z M146.815,202.776l-8.109,14.044c-0.534,0.925-1.53,1.5-2.598,1.5h-16.217
			c-1.068,0-2.064-0.575-2.598-1.5l-8.109-14.044c-0.534-0.925-0.534-2.075,0-3l8.109-14.044c0.534-0.925,1.529-1.5,2.598-1.5
			h16.217c1.068,0,2.064,0.575,2.598,1.5l8.108,14.043C147.349,200.701,147.35,201.85,146.815,202.776z"/>
	</g>
</g>
</svg>
